<?xml version="1.0" encoding="utf-8"?>
<!-- Generator: Adobe Illustrator 18.1.1, SVG Export Plug-In . SVG Version: 6.00 Build 0)  -->
<!DOCTYPE svg PUBLIC "-//W3C//DTD SVG 1.1//EN" "http://www.w3.org/Graphics/SVG/1.1/DTD/svg11.dtd">
<svg version="1.1" id="Layer_1" xmlns="http://www.w3.org/2000/svg" xmlns:xlink="http://www.w3.org/1999/xlink" x="0px" y="0px"
	 viewBox="0 0 400 400" enable-background="new 0 0 400 400" xml:space="preserve">
<g>
	<path fill="#FFFFFF" d="M289.5,334.9c0.1,0,9.2-2.4,9.2-2.4c11.3-2.8,18.6-4.7,22.8-6.7c0,0,3.7-1.8,3.7-1.8l2.1-3.5
		c0.6-1,14.8-24.9,21.8-58.2c2-1.8,9.4-8.5,9.4-8.5l0.2-2.2l0.3-3c0.3-2.7,0.4-5.5,0.4-8.3c0-5-0.4-10.1-1.2-15.4
		c16.4-9.1,23.4-22.3,27.8-33c3.5-8.7,5.3-18.5,5.3-28.7c0-10-1.7-20.4-5.2-30.5c-5.6-16.3-18.2-39.3-46.9-56.2
		c-17.9-10.5-43-15-67.3-12c-28.2,3.5-52.5,16.9-68.5,37.6c-1.2,1.6-2.4,3.3-3.5,5.1c-0.2,0-0.5,0.1-0.5,0.1
		c-90.2,14-161.7,72.8-164.7,75.3L8.7,204.1l33.5,2.7c59.1,4.8,100.9,25.4,125.6,41.9c27,18.1,40,35.3,40.2,35.4l8.7,11.9l11.2-9.6
		c1.9-1.6,3.6-3.5,5.2-5.6c0,0.1,0.4,0.3,0.4,0.3l2.5,2.1c1.7,1.3,3,2.5,4.8,4.5c0.4,1,0.7,2,0.7,3.2c0,3-0.4,3.9-1.2,5.8l-0.4,0.9
		c-1,2.3-2.8,5.6-2.8,5.7l-2.7,5l49.9,28"/>
	<path fill="#13264B" d="M238.8,267.5c0.2,0.2,0.4,0.3,0.6,0.5l0-0.2C239.3,267.9,239.1,267.7,238.8,267.5z"/>
	<g>
		<path fill="#13264B" d="M323.3,185.2c-0.3,0.3-0.6,0.6-0.8,0.8l0.5-0.5C323.1,185.5,323.2,185.3,323.3,185.2z"/>
	</g>
	<path fill="#C9AF74" d="M336.2,81.5c-32-18.9-95-19-128.2,24.1c-1.7,2.2-3.2,4.4-4.6,6.8c-1.4,0.3-2.5,0.5-3.2,0.6
		c-88.5,13.8-158.9,71.5-161.9,74l-14.9,12.4l19.3,1.6c117,9.4,169.4,79,170,79.7l5.1,6.9l6.5-5.5c3.5-3,6-6.6,7.7-10.1
		c1.6,1.4,3.4,3,5.5,4.9c2.9,2.6,5.2,3.9,8.4,7.8c1.1,2.1,1.5,4.3,1.5,6.4c0,4.8-0.9,6.3-2,8.9c-1.1,2.6-3.1,6.2-3.1,6.2l42.8,24
		l2.9-0.8l9.3-2.4c10.7-2.7,18-4.5,21.7-6.3l2.1-1l1.2-2c0.6-1,14.8-25.1,21.4-58.2c2.3-2.1,9.1-8.3,9.1-8.3l0.3-3
		c0.2-2.6,0.3-5.2,0.3-7.7c0-6.4-0.7-12.7-1.8-18.6c17-8,24.2-20.5,28.8-31.9C392.9,159.3,383.1,109.2,336.2,81.5z"/>
	<path fill="#13264B" d="M369.5,130.2C342.4,64.8,268,77.8,268,77.8s0.2,0,0.6-0.1c3.8-0.3,25.9-1.6,47.9,7.5
		c19.4,8,41.1,27.9,46.3,54.3c1.2,6.3,1.7,12.1,1.7,17.3l0,1.3c-0.2,16.1-5.1,27-6.7,30.4c-2.2,4.6-7.6,11.3-11.3,14
		c-3.1,2.3-5.9,3.2-8.1,3.2c-0.4,0-0.8,0-1.2-0.1h0c-0.4-0.1-0.7-0.2-1-0.3c-2.1-0.9-2.8-3.4-7.4-10c-3.1-4.4-7.1-8.6-7.1-8.6
		c0.4-0.3,0.7-0.7,1.1-1.1l0,0c0.2-0.2,0.3-0.4,0.5-0.6c0.4-0.5,0.8-1,1.2-1.5c1.1-1.6,2.1-3.4,2.9-5.4c0-0.1,0.1-0.1,0.1-0.2
		c0.2-0.7,0.5-1.3,0.7-2c3.8-13.6-0.4-34.6-17.5-48.2c-18.2-14.5-37.8-15.7-53.7-9.4c-26.8,10.7-42.9,42.9-23.8,69.3
		c9.3,12.8,24.3,13.6,33.7,6.4c8.8-6.7,14.6-27.3-6.9-38.3c17.3-1.5,38.3,19.2,28,45.9c-0.8,1.9-1.7,3.8-2.6,5.5
		c-15,25.3-55.9,22.5-75.6-1c-19.2-22.9-22.4-53.6-13.2-79.2c0.7-1.9,1.4-3.7,2.2-5.5c-79.1,17.1-130.2,64.9-130.2,64.9
		C179,209.3,219.1,276,219.1,276c4.1-3.5,6.3-8.2,7.6-12.1c-7.7-12.6-4.3-24.3-4.3-24.3c1.7,8.5,4.8,14.7,7.9,19.1
		c1.3,1.8,7.4,7.8,8.6,8.9c0.4,0.2,0.6,0.3,0.6,0.3l0,0.2c5.5,4.9,12.1,10.4,13.3,12.5c6,10.7-0.3,22.8-0.3,22.8l33.5,18.3
		c7.5-2.1,24.9-5.9,29.7-8.2c0,0,14.8-24.8,21-58.3l8.8-8c3.2-9.2-2.5-29.3-2.5-29.3c0.7-0.2,1.4-0.4,2.2-0.6
		c1.7-0.6,3.5-1.4,5.2-2.3C369.2,204.5,386.6,171.7,369.5,130.2z"/>
	<path fill="#FFFFFF" d="M364.6,156.9c0-5.2-0.5-11-1.7-17.3c-5.2-26.4-26.9-46.3-46.3-54.3c-22.1-9.1-44.1-7.8-47.9-7.5
		c-0.9,0.1-1.8,0.2-2.7,0.3c-30.1,4.3-48.4,25.8-48.4,25.8c27.2-21.3,68.1-23.8,95.2-12.7c27,11.1,46.7,33.6,51.9,67.1
		c0-0.1,0-0.2,0-0.3C364.6,157.6,364.6,157.3,364.6,156.9z"/>
	<g>
		<g>
			<path fill="#FFFFFF" d="M276.7,288.3c0.3-1.3,4.2-1.6,4.2-1.6c2.8,9.8-1.5,16-1.8,17C278.9,299.2,279.7,291,276.7,288.3z"/>
		</g>
		<path fill="#FFFFFF" d="M209.6,206.1c-19.2-22.9-22.4-53.6-13.2-79.2c-5.5,8.5-18.1,33.6-2.5,68.2c18.9,42,70.8,43.6,88.3,17.4
			c1.2-1.8,2.2-3.6,3.1-5.3C270.3,232.5,229.3,229.7,209.6,206.1z"/>
	</g>
	<g>
		<path fill="#FFFFFF" d="M309.2,244.3c0-3.5,2.8-6.3,6.3-6.3c0.1,0,0.2,0,0.3,0c-0.7-3.5-2.3-7.3-5.2-11c0,0,0.2,3.7-0.6,6.9
			c-3.2,1.7-5.4,5-5.4,8.9c0,5.5,4.5,10,10.1,10c0,0,0.4-0.9,0.8-2.3c0,0,0,0,0,0C312,250.6,309.2,247.8,309.2,244.3z"/>
		<path fill="#13264B" d="M316.1,247.1c-0.1,0.2-0.1,0.3-0.2,0.5c-1.3,0.5-3.4,0.1-4.2-1.9c2.3,1.4,4.1-0.1,4.6-0.5
			c0.1-0.1,0.1-0.1,0.1-0.1S316.5,245.9,316.1,247.1z"/>
		<path fill="#FFFFFF" d="M316.4,244.9c0,0,0,0.1-0.1,0.1c-0.5,0.4-2.3,1.9-4.6,0.5c0.8,2,3,2.5,4.2,1.9c0.1-0.2,0.1-0.3,0.2-0.5
			C316.5,245.9,316.4,244.9,316.4,244.9z"/>
	</g>
	<path fill="#FFFFFF" d="M335.8,243.3c0.8-31.8-25.8-52.9-25.8-52.9s19.5,24.3,17.2,52.8l-5.3,4.9c0.1,7.7-0.3,22.4-7.8,38.9
		c-7.8-14-24.9-23.3-32-25c-4.8,2.7-15.5,8.6-21.7,15.5c1.1,1.5,2.6,5.5,2.8,6.8c1.4,7.8,0.3,13.5-0.9,17.6c0,0,11.9,6.6,11.7,6.3
		c3.2-11.2-1.1-16.3-4.4-22.1c3.2-1.9,10.6-6.1,14.1-7.6c3.5,4.8,5.3,12.8,1.5,24.2c-1.1,3.4-2.8,6.9-3.8,9.3c0,0.1,4.6,2.6,4.6,2.4
		c6-1.2,11.5-5.3,13.6-11.1c0.6-1.7,0.4-3,0.1-4.4c-0.6,0.8-1.4,1.9-2.4,2.6c-1.5-3.6-1.6-6.4,0.4-8.5c1-1.1,2.1-1.5,3.5-1.6
		c2-0.1,3.6,1.2,4.2,2.7c3,7.3-3.9,15-3.9,15s6.6-0.3,8.5-1.2c3.9-7.9,15.9-33.5,19.3-59.3L335.8,243.3z"/>
</g>
</svg>
