<?xml version="1.0" encoding="utf-8"?>
<!-- Generator: Adobe Illustrator 18.1.1, SVG Export Plug-In . SVG Version: 6.00 Build 0)  -->
<!DOCTYPE svg PUBLIC "-//W3C//DTD SVG 1.1//EN" "http://www.w3.org/Graphics/SVG/1.1/DTD/svg11.dtd">
<svg version="1.1" id="Layer_1" xmlns="http://www.w3.org/2000/svg" xmlns:xlink="http://www.w3.org/1999/xlink" x="0px" y="0px"
	 viewBox="0 0 400 400" enable-background="new 0 0 400 400" xml:space="preserve">
<g>
	<g>
		<path fill="#023A79" d="M317.5,69.8c-6.5-9.1-3.9-13.9,0.6-14.6c3.1-0.4,6.9,0,8.8,0c3.4,0,10,0.4,9.5-6.3
			c-0.6-7.6-2.2-14.8-4.1-23.7c-1.9-8.8-2.5-8.2-14.5-8.2c0,0-2.2-0.3-20.5,0.9c-18.3,1.3-32.8,3.8-33.5,28.4
			c-0.6,24.6,5.1,32.8,15.2,48.6c10.1,15.8,40.4,64.4,40.4,108.6c0,81.3-71.4,116.2-119.4,116.2c-48,0-119.4-34.9-119.4-116.2
			c0-44.2,30.3-92.8,40.4-108.6c10.1-15.8,15.8-24,15.2-48.6c-0.6-24.6-15.2-27.2-33.5-28.4C84.4,16.7,82.2,17,82.2,17
			c-12,0-12.6-0.6-14.5,8.2c-1.9,8.8-3.5,16.1-4.1,23.7c-0.6,6.7,6,6.3,9.5,6.3c2,0,5.7-0.5,8.8,0c4.5,0.6,7.1,5.5,0.6,14.6
			c-26.1,36.5-53.7,81.8-53.7,135.8c0,89,76.4,177.5,171.1,177.5s171.1-88.4,171.1-177.5C371.1,151.5,343.6,106.3,317.5,69.8z
			 M291.9,76.2c-2.8,0-5.1-2.3-5.1-5.1c0-2.8,2.3-5.1,5.1-5.1c2.8,0,5.1,2.3,5.1,5.1C297,73.9,294.7,76.2,291.9,76.2z M108.1,65.9
			c2.8,0,5.1,2.3,5.1,5.1c0,2.8-2.3,5.1-5.1,5.1c-2.8,0-5.1-2.3-5.1-5.1C103,68.2,105.3,65.9,108.1,65.9z M57,196.8
			c-2.8,0-5.1-2.3-5.1-5.1c0-2.8,2.3-5.1,5.1-5.1c2.8,0,5.1,2.3,5.1,5.1C62.1,194.5,59.8,196.8,57,196.8z M82.2,298.5
			c-2.8,0-5.1-2.3-5.1-5.1s2.3-5.1,5.1-5.1c2.8,0,5.1,2.3,5.1,5.1S85.1,298.5,82.2,298.5z M200,356.6c-2.8,0-5.1-2.3-5.1-5.1
			c0-2.8,2.3-5.1,5.1-5.1c2.8,0,5.1,2.3,5.1,5.1C205.1,354.3,202.8,356.6,200,356.6z M317.8,298.5c-2.8,0-5.1-2.3-5.1-5.1
			s2.3-5.1,5.1-5.1c2.8,0,5.1,2.3,5.1,5.1S320.6,298.5,317.8,298.5z M343,196.8c-2.8,0-5.1-2.3-5.1-5.1c0-2.8,2.3-5.1,5.1-5.1
			c2.8,0,5.1,2.3,5.1,5.1C348.2,194.5,345.9,196.8,343,196.8z"/>
	</g>
	<g>
		<g>
			<circle fill="#FFFFFF" cx="291.9" cy="71" r="5.1"/>
			<path fill="#FFFFFF" d="M291.9,71"/>
		</g>
		<circle fill="#FFFFFF" cx="108.1" cy="71" r="5.1"/>
		<g>
			<path fill="#FFFFFF" d="M51.8,191.6c0-2.8,2.3-5.1,5.1-5.1c2.8,0,5.1,2.3,5.1,5.1c0,2.8-2.3,5.1-5.1,5.1
				C54.1,196.8,51.8,194.5,51.8,191.6z"/>
			<path fill="#FFFFFF" d="M57,191.6"/>
		</g>
		<circle fill="#FFFFFF" cx="82.2" cy="293.3" r="5.1"/>
		<circle fill="#FFFFFF" cx="200" cy="351.4" r="5.1"/>
		<g>
			<circle fill="#FFFFFF" cx="317.8" cy="293.3" r="5.1"/>
			<path fill="#FFFFFF" d="M317.8,293.3"/>
		</g>
		<g>
			<path fill="#FFFFFF" d="M337.9,191.6c0-2.8,2.3-5.1,5.1-5.1c2.8,0,5.1,2.3,5.1,5.1c0,2.8-2.3,5.1-5.1,5.1
				C340.2,196.8,337.9,194.5,337.9,191.6z"/>
			<path fill="#FFFFFF" d="M343,191.6"/>
		</g>
	</g>
</g>
</svg>
