<?xml version="1.0" encoding="utf-8"?>
<!-- Generator: Adobe Illustrator 18.1.1, SVG Export Plug-In . SVG Version: 6.00 Build 0)  -->
<!DOCTYPE svg PUBLIC "-//W3C//DTD SVG 1.1//EN" "http://www.w3.org/Graphics/SVG/1.1/DTD/svg11.dtd">
<svg version="1.1" id="Layer_1" xmlns="http://www.w3.org/2000/svg" xmlns:xlink="http://www.w3.org/1999/xlink" x="0px" y="0px"
	 viewBox="0 0 400 400" enable-background="new 0 0 400 400" xml:space="preserve">
<g>
	<g>
		<path fill="#FFFFFF" d="M362.8,192.7c-6.4-5.5-14.7-5.9-19.5-15.4c-3.7-7.3-11.8-10-19.2-11.2c-5.8-1.4-9.2-7-13.2-11.2
			c-5.1-8.9-15.5-9-24.6-10c-9.9,0.4-16.1-11.6-26.4-14.3c-3.8-1-14-0.3-20.7-5.1c-6-4.4-13.6-8.9-28.9-6.9
			c-11.4-1.9-19.6-11.7-31.3-13.2c-7.9-2.4-15,1.2-22.9,0.8c-5.5-1.5-10-5.4-15.6-6.5c-8.4-1.5-10.5,1.8-31.8-2.7
			c-10-2.2-22.5-5.4-16.1,15.5c2.8,9.2,9.4,31.9-12,34.1c-7.7,0.8-14.8-6.3-21.8-0.6c-2.4,1.7-6.9-2.2-9.8-1.3
			c-9.3,2.7-5.6,13.5-6.4,21c-0.2,8.4-6,14.6-8.7,21.9c-6.6,13.4-3.8,31.7,0.8,45.1c1.3,7-0.7,14.2,0.7,21.1
			c0.4,1.2,1.9,2.8,3.7,1.9c14.2-6.9,17.7,1.7,22.5-0.3c13.3-5.8,22.4-3.2,25.3,3.6c4.9,14.1-5.6,26.4-2.8,40.2
			c2.7,9.3,20.3,1.2,28.6,0.8c11.5-0.9,22.7,2.4,33.7,0.3c9.5-4.9,20.2-7.6,31.7-7.3c7.7,0.1,13.6-3.9,19.8-7.5
			c11.3-7.9,28.5-2.1,39.4-11c6-4.7,14.7-2.8,21.1-6.4c9.8-8.7,21.5-13.4,34.2-15.3c6.6-2.6,11.8-9.5,18.1-12.7
			c5.6-3.5,12.2-4.2,17.6-8.2c8.5-11.2,19.8-20.4,33.4-22.7C374.7,204.2,370.1,196.9,362.8,192.7z M279.9,242.5
			c-10.3,9.7-29.8,16.6-48.3,18.5c-22.2,2.3-44.2-0.9-61.8-12.5c-10.5-7.7-17.1-19.6-15.9-32.9c0.7-13,8.8-24.1,19.2-31.8
			c-0.8-0.9-1.5-1.6-2.4-2.7l-25.3,15.5c0,1.3,0,3.1,0,4.4c2.6,0,3.3,0,6.4,0v14.2l-4.8,5.4l-46.7,0l0-11l5.8-8.5c0.9,0,1.4,0,1.8,0
			v-48.8l-7.6,0l0-9.9l6.3-7h45.1l0,10.5l-6.3,7.5l0,18.9c24.4-13.8,43.7-24.6,43.7-24.6v-8.4l3.9-4h46.4c0,4.8,0,6.1,0,10.7
			l-5.8,6.2l-13.7,0c-8,4.9-9.3,5.7-17.4,10.5c0.9,1.2,1.6,2,3.6,4.1c21.8-5.3,48.3-4.8,68,4.5l6.9-5.2c5.8,0,7.5,0,13,0
			c0,10.4,0,15.9,0,32.6l-6.1,7l-11.7,0c-10.3-17.3-29.6-25.4-49.8-22.1c-1.3,0.4-2.6,0.5-3.7,1.1c7.2,7.9,8.2,8.9,15.3,16.4
			c1.4,0,1.8,0,3,0l0,13.5l-4.7,6.1H189v-11.4l3-5.3c-0.4-0.5-0.7-0.7-1.4-1.3c-4.2,3.2-6.1,8.3-5.1,13.4
			c2.2,11.7,13.9,17.8,24.1,20.3c17,3.7,36.7,2.2,51.8-4.6c13.5-7.8,14.4-14.9,14.9-15.5h17.9C293.9,224.8,288.7,234.3,279.9,242.5z
			"/>
	</g>
	<g>
		<g>
			<path d="M349.2,170.2c-8.4-5.4-6.3-16.1-25.9-18.6c-10.2-1.5-10.5-16.3-33.5-20.7c-10.9-2.1-18.1-12.8-29.4-13.8
				c-10.3,0.2-20.6-0.1-28.3-6.4c-7.7-7.3-19.6-3.4-29.5-5.6c-8.1-2.8-12.1-8.3-20.5-10.7c-9.3-2.9-16.8,0.4-24.2-1.5
				c-9.4-1-16.7-8-27.1-6.4c-10.1,2.8-21.3,0.2-31.5-0.6c-6.1-0.7-24.1-4.6-20.9,12.9c2,8.3,3.9,16.6,5.9,24.7
				c4,13.1-0.3,14.1-6.4,14.6c-5.9,0.5-7.3-7.3-12.7-7.9c-4.3-0.7-10.8,4-16,5.7c-5.3,1.6-7.5-3.9-12-4.2
				c-9.7-0.1-10.1,12.7-8.4,14.8c3.3,6.4,4,15.2,1.5,22.3c-3.5,6.2-6.6,12.5-8.5,19.5c-3.7,17.5-2.6,37.7,3.7,53.7
				c2.1,8.9-5.6,19.1,2.3,25.9c7.2,4.8,12.9-2.2,19.7-3.7c5-1.1,13.2,2.3,17.4,0c9.6-4.7,15.1-0.7,14,5.7
				c-2.6,10.6-4.9,21.3-8.3,31.6c-2,7.5,7.2,14.3,11.9,13.5c6.4-1.2,12.8-2.3,19.1-3.5c14.7-2.2,28.2,5.5,42.1,0.4
				c9.3-4.6,18.7-9.2,30.6-7.6c8,1,14.2-2.7,20.3-6.4c7.5-4.4,21.4-6.3,25.9-6.2c8.3,0.3,13.5-5.6,20.7-7.8
				c5.5-1.8,15.1-1.9,17.1-3.4c5-4.1,11.4-10.2,15.9-10.9c13.3-2.6,24.6-8.5,35.1-17.9c1.4-1.4,12.6-3.6,15.9-4.9
				c6.9-2.7,11.5-9.5,15.2-15.5c3.6-4.9,8.9-8,14.4-9.7c9.4-1.5,18.9-9.6,23-18.1c3.7-7.7,2.2-9,1.2-10.3
				C369.9,184.4,359.6,176.6,349.2,170.2z M361.8,209.3c-13.5,2.3-24.8,11.6-33.4,22.7c-5.4,4-12,4.7-17.6,8.2
				c-6.3,3.3-11.4,10.2-18.1,12.7c-12.7,1.9-24.4,6.5-34.2,15.3c-6.4,3.6-15.2,1.8-21.1,6.4c-11,8.9-28.1,3-39.4,11
				c-6.2,3.6-12.1,7.6-19.8,7.5c-11.6-0.2-22.2,2.5-31.7,7.3c-11,2.1-22.2-1.2-33.7-0.3c-8.3,0.4-25.9,8.5-28.6-0.8
				c-2.8-13.9,7.7-26.1,2.8-40.2c-2.8-6.8-12-9.4-25.3-3.6c-4.8,2-8.4-6.6-22.5,0.3c-1.9,0.9-3.3-0.7-3.7-1.9
				c-1.4-6.9,0.6-14.1-0.7-21.1c-4.7-13.4-7.5-31.7-0.8-45.1c2.8-7.4,8.5-13.5,8.7-21.9c0.8-7.5-2.9-18.3,6.4-21
				c2.9-0.9,7.4,3,9.8,1.3c7-5.7,14.1,1.3,21.8,0.6c21.4-2.2,14.8-25,12-34.1c-6.4-20.9,6.1-17.7,16.1-15.5
				c21.3,4.6,23.4,1.3,31.8,2.7c5.6,1.2,10.1,5,15.6,6.5c7.8,0.3,14.9-3.3,22.9-0.8c11.7,1.5,19.8,11.3,31.3,13.2
				c15.3-2,22.8,2.5,28.9,6.9c6.6,4.8,16.9,4.1,20.7,5.1c10.3,2.7,16.5,14.7,26.4,14.3c9.1,1,19.5,1.2,24.6,10
				c4,4.2,7.3,9.8,13.2,11.2c7.5,1.2,15.6,3.9,19.2,11.2c4.8,9.5,13.1,9.9,19.5,15.4C370.1,196.9,374.7,204.2,361.8,209.3z"/>
			<path d="M261.5,231.8c-15,6.8-34.8,8.3-51.8,4.6c-10.3-2.4-21.9-8.6-24.1-20.3c-0.9-5.1,0.9-10.3,5.1-13.4
				c0.6,0.6,0.9,0.8,1.4,1.3l-3,5.3v11.4h47.2l4.7-6.1l0-13.5c-1.2,0-1.6,0-3,0c-7.1-7.5-8-8.5-15.3-16.4c1.2-0.6,2.5-0.7,3.7-1.1
				c20.2-3.3,39.5,4.8,49.8,22.1l11.7,0l6.1-7c0-16.7,0-22.1,0-32.6c-5.5,0-7.2,0-13,0l-6.9,5.2c-19.7-9.3-46.2-9.8-68-4.5
				c-2-2.1-2.7-2.9-3.6-4.1c8.1-4.9,9.4-5.6,17.4-10.5l13.7,0l5.8-6.2c0-4.6,0-5.9,0-10.7h-46.4l-3.9,4v8.4c0,0-19.3,10.9-43.7,24.6
				l0-18.9l6.3-7.5l0-10.5h-45.1l-6.3,7l0,9.9l7.6,0v48.8c-0.4,0-0.8,0-1.8,0l-5.8,8.5l0,11l46.7,0l4.8-5.4v-14.2
				c-3.1,0-3.7,0-6.4,0c0-1.3,0-3.1,0-4.4l25.3-15.5c1,1.1,1.6,1.8,2.4,2.7c-10.4,7.7-18.5,18.8-19.2,31.8
				c-1.3,13.3,5.4,25.2,15.9,32.9c17.6,11.5,39.6,14.8,61.8,12.5c18.5-1.9,38-8.8,48.3-18.5c8.8-8.2,14-17.7,14.4-26.3h-17.9
				C275.9,216.9,274.9,223.9,261.5,231.8z M264.9,170.8c0,0,7.3,2.5,9.7,3.9l6.9-5.5c4,0,5.8,0,9.5,0v29c-3.8,0-4.8,0-9.6,0
				c-14.7-18.3-39.4-21.9-62.1-16.9l-10.7-11.6C226,164.2,248.3,164.6,264.9,170.8z M142.1,195.4c0,3.7,0,5,0,9.3l6.7,0l0,8.4
				c-18.9,0-20.6,0-40.2,0l0-8.5c3.5,0,4.6,0,7.4,0V145h-7.4v-6.9c18.7,0,22.9,0,40.2,0c0,3,0,3.4,0,6.9c-2.6,0-2.6,0-6.7,0l0,32.6
				l58.4-32.6c0,0-4.3,0-6.4,0c0-2.8,0-3.6,0-6.8l42,0l0,6.9H226c-11.6,7-28.7,17.3-28.7,17.3l39.5,42.4l1.1,0c0,3.1,0,5.1,0,8.5
				l-42.2,0l0-8.5l6.1,0c-17-18.6-26.8-29.3-26.8-29.3C164.3,181.8,161.2,183.7,142.1,195.4z M290.9,219.8
				c-6,22.5-30.4,32.5-51.4,35.4c-19.7,2.7-39.9,0.2-56.8-7c-11.8-4.5-22.1-16-23.1-28.9c-1-13.4,5.1-25.5,16-32.7l12.7,13.4
				c-4.1,4.7-6.5,10.3-5.4,16.7c2,12.4,15.3,20.9,26.5,23.2c20.2,3.3,42.7,2,59.5-8.1c8.3-5.9,11.6-12,11.6-12
				C285,219.8,286.4,219.8,290.9,219.8z"/>
		</g>
	</g>
	<g>
		<path fill="#B21E35" d="M201.8,204.7l-6.1,0l0,8.5l42.2,0c0-3.4,0-5.4,0-8.5l-1.1,0l-39.5-42.4c0,0,17.1-10.3,28.7-17.3h10.2
			l0-6.9l-42,0c0,3.2,0,4,0,6.8c2.1,0,6.4,0,6.4,0l-58.4,32.6l0-32.6c4.1,0,4.1,0,6.7,0c0-3.5,0-3.9,0-6.9c-17.2,0-21.5,0-40.2,0
			v6.9h7.4v59.7c-2.8,0-3.9,0-7.4,0l0,8.5c19.6,0,21.3,0,40.2,0l0-8.4l-6.7,0c0-4.3,0-5.6,0-9.3c19.1-11.7,22.2-13.6,32.9-20
			C175,175.4,184.8,186,201.8,204.7z"/>
		<path fill="#B21E35" d="M281.3,198.1c4.8,0,5.8,0,9.6,0v-29c-3.7,0-5.4,0-9.5,0l-6.9,5.5c-2.4-1.4-9.7-3.9-9.7-3.9
			c-16.6-6.2-38.8-6.5-56.4-1.2l10.7,11.6C241.9,176.1,266.6,179.8,281.3,198.1z"/>
		<path fill="#B21E35" d="M268.8,231.8c-16.8,10-39.3,11.3-59.5,8.1c-11.2-2.3-24.5-10.9-26.5-23.2c-1.2-6.4,1.3-12,5.4-16.7
			l-12.7-13.4c-11,7.2-17.1,19.4-16,32.7c1,12.9,11.3,24.4,23.1,28.9c16.9,7.2,37.1,9.7,56.8,7c21.1-2.9,45.5-12.9,51.4-35.4
			c-4.4,0-5.9,0-10.4,0C280.5,219.8,277.1,225.8,268.8,231.8z"/>
	</g>
</g>
</svg>
